<svg xmlns="http://www.w3.org/2000/svg" width="980" height="620" viewBox="0 0 980 620">
<rect width="100%" height="100%" fill="white"/>
<text x="490.0" y="34" text-anchor="middle" font-family="Arial" font-size="22" font-weight="700">OPT / ALG by k (exponential)</text>
<text x="490.0" y="598" text-anchor="middle" font-family="Arial" font-size="14">k</text>
<text x="22" y="305.0" transform="rotate(-90 22 305.0)" text-anchor="middle" font-family="Arial" font-size="14">OPT / ALG</text>
<line x1="80" y1="70" x2="80" y2="540" stroke="#111827" stroke-width="1.5"/>
<line x1="80" y1="540" x2="720" y2="540" stroke="#111827" stroke-width="1.5"/>
<line x1="80.00" y1="540" x2="80.00" y2="546" stroke="#111827"/>
<text x="80.00" y="564" text-anchor="middle" font-family="Arial" font-size="12">2</text>
<line x1="160.00" y1="540" x2="160.00" y2="546" stroke="#111827"/>
<text x="160.00" y="564" text-anchor="middle" font-family="Arial" font-size="12">3</text>
<line x1="240.00" y1="540" x2="240.00" y2="546" stroke="#111827"/>
<text x="240.00" y="564" text-anchor="middle" font-family="Arial" font-size="12">4</text>
<line x1="320.00" y1="540" x2="320.00" y2="546" stroke="#111827"/>
<text x="320.00" y="564" text-anchor="middle" font-family="Arial" font-size="12">5</text>
<line x1="400.00" y1="540" x2="400.00" y2="546" stroke="#111827"/>
<text x="400.00" y="564" text-anchor="middle" font-family="Arial" font-size="12">6</text>
<line x1="480.00" y1="540" x2="480.00" y2="546" stroke="#111827"/>
<text x="480.00" y="564" text-anchor="middle" font-family="Arial" font-size="12">7</text>
<line x1="560.00" y1="540" x2="560.00" y2="546" stroke="#111827"/>
<text x="560.00" y="564" text-anchor="middle" font-family="Arial" font-size="12">8</text>
<line x1="640.00" y1="540" x2="640.00" y2="546" stroke="#111827"/>
<text x="640.00" y="564" text-anchor="middle" font-family="Arial" font-size="12">9</text>
<line x1="720.00" y1="540" x2="720.00" y2="546" stroke="#111827"/>
<text x="720.00" y="564" text-anchor="middle" font-family="Arial" font-size="12">10</text>
<line x1="74" y1="540.00" x2="80" y2="540.00" stroke="#111827"/>
<line x1="80" y1="540.00" x2="720" y2="540.00" stroke="#e5e7eb"/>
<text x="70" y="544.00" text-anchor="end" font-family="Arial" font-size="12">0.00</text>
<line x1="74" y1="446.00" x2="80" y2="446.00" stroke="#111827"/>
<line x1="80" y1="446.00" x2="720" y2="446.00" stroke="#e5e7eb"/>
<text x="70" y="450.00" text-anchor="end" font-family="Arial" font-size="12">17.35</text>
<line x1="74" y1="352.00" x2="80" y2="352.00" stroke="#111827"/>
<line x1="80" y1="352.00" x2="720" y2="352.00" stroke="#e5e7eb"/>
<text x="70" y="356.00" text-anchor="end" font-family="Arial" font-size="12">34.70</text>
<line x1="74" y1="258.00" x2="80" y2="258.00" stroke="#111827"/>
<line x1="80" y1="258.00" x2="720" y2="258.00" stroke="#e5e7eb"/>
<text x="70" y="262.00" text-anchor="end" font-family="Arial" font-size="12">52.05</text>
<line x1="74" y1="164.00" x2="80" y2="164.00" stroke="#111827"/>
<line x1="80" y1="164.00" x2="720" y2="164.00" stroke="#e5e7eb"/>
<text x="70" y="168.00" text-anchor="end" font-family="Arial" font-size="12">69.40</text>
<line x1="74" y1="70.00" x2="80" y2="70.00" stroke="#111827"/>
<line x1="80" y1="70.00" x2="720" y2="70.00" stroke="#e5e7eb"/>
<text x="70" y="74.00" text-anchor="end" font-family="Arial" font-size="12">86.75</text>
<polyline points="80.00,534.41 160.00,534.32 240.00,534.27 320.00,534.24 400.00,534.22 480.00,534.22 560.00,534.22 640.00,534.24 720.00,534.26" fill="none" stroke="#16a34a" stroke-width="2.5"/>
<circle cx="80.00" cy="534.41" r="4" fill="#16a34a"/>
<circle cx="160.00" cy="534.32" r="4" fill="#16a34a"/>
<circle cx="240.00" cy="534.27" r="4" fill="#16a34a"/>
<circle cx="320.00" cy="534.24" r="4" fill="#16a34a"/>
<circle cx="400.00" cy="534.22" r="4" fill="#16a34a"/>
<circle cx="480.00" cy="534.22" r="4" fill="#16a34a"/>
<circle cx="560.00" cy="534.22" r="4" fill="#16a34a"/>
<circle cx="640.00" cy="534.24" r="4" fill="#16a34a"/>
<circle cx="720.00" cy="534.26" r="4" fill="#16a34a"/>
<line x1="750" y1="80" x2="772" y2="80" stroke="#16a34a" stroke-width="3"/>
<text x="780" y="84" font-family="Arial" font-size="13">Offline Deterministic</text>
<polyline points="80.00,534.58 160.00,534.58 240.00,534.58 320.00,534.58 400.00,534.58 480.00,534.58 560.00,534.58 640.00,534.58 720.00,534.58" fill="none" stroke="#2563eb" stroke-width="2.5"/>
<circle cx="80.00" cy="534.58" r="4" fill="#2563eb"/>
<circle cx="160.00" cy="534.58" r="4" fill="#2563eb"/>
<circle cx="240.00" cy="534.58" r="4" fill="#2563eb"/>
<circle cx="320.00" cy="534.58" r="4" fill="#2563eb"/>
<circle cx="400.00" cy="534.58" r="4" fill="#2563eb"/>
<circle cx="480.00" cy="534.58" r="4" fill="#2563eb"/>
<circle cx="560.00" cy="534.58" r="4" fill="#2563eb"/>
<circle cx="640.00" cy="534.58" r="4" fill="#2563eb"/>
<circle cx="720.00" cy="534.58" r="4" fill="#2563eb"/>
<line x1="750" y1="106" x2="772" y2="106" stroke="#2563eb" stroke-width="3"/>
<text x="780" y="110" font-family="Arial" font-size="13">Offline Greedy</text>
<polyline points="80.00,534.42 160.00,534.33 240.00,534.27 320.00,534.24 400.00,534.23 480.00,534.22 560.00,534.22 640.00,534.23 720.00,534.25" fill="none" stroke="#f97316" stroke-width="2.5"/>
<circle cx="80.00" cy="534.42" r="4" fill="#f97316"/>
<circle cx="160.00" cy="534.33" r="4" fill="#f97316"/>
<circle cx="240.00" cy="534.27" r="4" fill="#f97316"/>
<circle cx="320.00" cy="534.24" r="4" fill="#f97316"/>
<circle cx="400.00" cy="534.23" r="4" fill="#f97316"/>
<circle cx="480.00" cy="534.22" r="4" fill="#f97316"/>
<circle cx="560.00" cy="534.22" r="4" fill="#f97316"/>
<circle cx="640.00" cy="534.23" r="4" fill="#f97316"/>
<circle cx="720.00" cy="534.25" r="4" fill="#f97316"/>
<line x1="750" y1="132" x2="772" y2="132" stroke="#f97316" stroke-width="3"/>
<text x="780" y="136" font-family="Arial" font-size="13">Offline Randomized</text>
<polyline points="80.00,429.79 160.00,401.06 240.00,342.15 320.00,314.36 400.00,299.77 480.00,285.32 560.00,150.98 640.00,120.61 720.00,104.81" fill="none" stroke="#dc2626" stroke-width="2.5"/>
<circle cx="80.00" cy="429.79" r="4" fill="#dc2626"/>
<circle cx="160.00" cy="401.06" r="4" fill="#dc2626"/>
<circle cx="240.00" cy="342.15" r="4" fill="#dc2626"/>
<circle cx="320.00" cy="314.36" r="4" fill="#dc2626"/>
<circle cx="400.00" cy="299.77" r="4" fill="#dc2626"/>
<circle cx="480.00" cy="285.32" r="4" fill="#dc2626"/>
<circle cx="560.00" cy="150.98" r="4" fill="#dc2626"/>
<circle cx="640.00" cy="120.61" r="4" fill="#dc2626"/>
<circle cx="720.00" cy="104.81" r="4" fill="#dc2626"/>
<line x1="750" y1="158" x2="772" y2="158" stroke="#dc2626" stroke-width="3"/>
<text x="780" y="162" font-family="Arial" font-size="13">Online Randomized</text>
<polyline points="80.00,516.16 160.00,516.16 240.00,516.16 320.00,516.16 400.00,516.16 480.00,516.16 560.00,516.16 640.00,516.16 720.00,516.16" fill="none" stroke="#7c3aed" stroke-width="2.5"/>
<circle cx="80.00" cy="516.16" r="4" fill="#7c3aed"/>
<circle cx="160.00" cy="516.16" r="4" fill="#7c3aed"/>
<circle cx="240.00" cy="516.16" r="4" fill="#7c3aed"/>
<circle cx="320.00" cy="516.16" r="4" fill="#7c3aed"/>
<circle cx="400.00" cy="516.16" r="4" fill="#7c3aed"/>
<circle cx="480.00" cy="516.16" r="4" fill="#7c3aed"/>
<circle cx="560.00" cy="516.16" r="4" fill="#7c3aed"/>
<circle cx="640.00" cy="516.16" r="4" fill="#7c3aed"/>
<circle cx="720.00" cy="516.16" r="4" fill="#7c3aed"/>
<line x1="750" y1="184" x2="772" y2="184" stroke="#7c3aed" stroke-width="3"/>
<text x="780" y="188" font-family="Arial" font-size="13">Simple Online Greedy</text>
</svg>