<svg xmlns="http://www.w3.org/2000/svg" width="980" height="620" viewBox="0 0 980 620">
<rect width="100%" height="100%" fill="white"/>
<text x="490.0" y="34" text-anchor="middle" font-family="Arial" font-size="22" font-weight="700">Fairness by k (exponential)</text>
<text x="490.0" y="598" text-anchor="middle" font-family="Arial" font-size="14">k</text>
<text x="22" y="305.0" transform="rotate(-90 22 305.0)" text-anchor="middle" font-family="Arial" font-size="14">Fairness</text>
<line x1="80" y1="70" x2="80" y2="540" stroke="#111827" stroke-width="1.5"/>
<line x1="80" y1="540" x2="720" y2="540" stroke="#111827" stroke-width="1.5"/>
<line x1="80.00" y1="540" x2="80.00" y2="546" stroke="#111827"/>
<text x="80.00" y="564" text-anchor="middle" font-family="Arial" font-size="12">2</text>
<line x1="160.00" y1="540" x2="160.00" y2="546" stroke="#111827"/>
<text x="160.00" y="564" text-anchor="middle" font-family="Arial" font-size="12">3</text>
<line x1="240.00" y1="540" x2="240.00" y2="546" stroke="#111827"/>
<text x="240.00" y="564" text-anchor="middle" font-family="Arial" font-size="12">4</text>
<line x1="320.00" y1="540" x2="320.00" y2="546" stroke="#111827"/>
<text x="320.00" y="564" text-anchor="middle" font-family="Arial" font-size="12">5</text>
<line x1="400.00" y1="540" x2="400.00" y2="546" stroke="#111827"/>
<text x="400.00" y="564" text-anchor="middle" font-family="Arial" font-size="12">6</text>
<line x1="480.00" y1="540" x2="480.00" y2="546" stroke="#111827"/>
<text x="480.00" y="564" text-anchor="middle" font-family="Arial" font-size="12">7</text>
<line x1="560.00" y1="540" x2="560.00" y2="546" stroke="#111827"/>
<text x="560.00" y="564" text-anchor="middle" font-family="Arial" font-size="12">8</text>
<line x1="640.00" y1="540" x2="640.00" y2="546" stroke="#111827"/>
<text x="640.00" y="564" text-anchor="middle" font-family="Arial" font-size="12">9</text>
<line x1="720.00" y1="540" x2="720.00" y2="546" stroke="#111827"/>
<text x="720.00" y="564" text-anchor="middle" font-family="Arial" font-size="12">10</text>
<line x1="74" y1="540.00" x2="80" y2="540.00" stroke="#111827"/>
<line x1="80" y1="540.00" x2="720" y2="540.00" stroke="#e5e7eb"/>
<text x="70" y="544.00" text-anchor="end" font-family="Arial" font-size="12">0.00</text>
<line x1="74" y1="446.00" x2="80" y2="446.00" stroke="#111827"/>
<line x1="80" y1="446.00" x2="720" y2="446.00" stroke="#e5e7eb"/>
<text x="70" y="450.00" text-anchor="end" font-family="Arial" font-size="12">0.17</text>
<line x1="74" y1="352.00" x2="80" y2="352.00" stroke="#111827"/>
<line x1="80" y1="352.00" x2="720" y2="352.00" stroke="#e5e7eb"/>
<text x="70" y="356.00" text-anchor="end" font-family="Arial" font-size="12">0.35</text>
<line x1="74" y1="258.00" x2="80" y2="258.00" stroke="#111827"/>
<line x1="80" y1="258.00" x2="720" y2="258.00" stroke="#e5e7eb"/>
<text x="70" y="262.00" text-anchor="end" font-family="Arial" font-size="12">0.52</text>
<line x1="74" y1="164.00" x2="80" y2="164.00" stroke="#111827"/>
<line x1="80" y1="164.00" x2="720" y2="164.00" stroke="#e5e7eb"/>
<text x="70" y="168.00" text-anchor="end" font-family="Arial" font-size="12">0.70</text>
<line x1="74" y1="70.00" x2="80" y2="70.00" stroke="#111827"/>
<line x1="80" y1="70.00" x2="720" y2="70.00" stroke="#e5e7eb"/>
<text x="70" y="74.00" text-anchor="end" font-family="Arial" font-size="12">0.87</text>
<polyline points="80.00,104.81 160.00,158.59 240.00,195.68 320.00,219.89 400.00,237.79 480.00,254.58 560.00,263.58 640.00,274.67 720.00,286.69" fill="none" stroke="#16a34a" stroke-width="2.5"/>
<circle cx="80.00" cy="104.81" r="4" fill="#16a34a"/>
<circle cx="160.00" cy="158.59" r="4" fill="#16a34a"/>
<circle cx="240.00" cy="195.68" r="4" fill="#16a34a"/>
<circle cx="320.00" cy="219.89" r="4" fill="#16a34a"/>
<circle cx="400.00" cy="237.79" r="4" fill="#16a34a"/>
<circle cx="480.00" cy="254.58" r="4" fill="#16a34a"/>
<circle cx="560.00" cy="263.58" r="4" fill="#16a34a"/>
<circle cx="640.00" cy="274.67" r="4" fill="#16a34a"/>
<circle cx="720.00" cy="286.69" r="4" fill="#16a34a"/>
<line x1="750" y1="80" x2="772" y2="80" stroke="#16a34a" stroke-width="3"/>
<text x="780" y="84" font-family="Arial" font-size="13">Offline Deterministic</text>
<polyline points="80.00,105.67 160.00,160.98 240.00,197.18 320.00,222.70 400.00,243.89 480.00,257.75 560.00,269.74 640.00,279.44 720.00,288.44" fill="none" stroke="#2563eb" stroke-width="2.5"/>
<circle cx="80.00" cy="105.67" r="4" fill="#2563eb"/>
<circle cx="160.00" cy="160.98" r="4" fill="#2563eb"/>
<circle cx="240.00" cy="197.18" r="4" fill="#2563eb"/>
<circle cx="320.00" cy="222.70" r="4" fill="#2563eb"/>
<circle cx="400.00" cy="243.89" r="4" fill="#2563eb"/>
<circle cx="480.00" cy="257.75" r="4" fill="#2563eb"/>
<circle cx="560.00" cy="269.74" r="4" fill="#2563eb"/>
<circle cx="640.00" cy="279.44" r="4" fill="#2563eb"/>
<circle cx="720.00" cy="288.44" r="4" fill="#2563eb"/>
<line x1="750" y1="106" x2="772" y2="106" stroke="#2563eb" stroke-width="3"/>
<text x="780" y="110" font-family="Arial" font-size="13">Offline Greedy</text>
<polyline points="80.00,116.26 160.00,176.73 240.00,202.00 320.00,225.34 400.00,265.59 480.00,270.27 560.00,272.83 640.00,276.91 720.00,287.49" fill="none" stroke="#f97316" stroke-width="2.5"/>
<circle cx="80.00" cy="116.26" r="4" fill="#f97316"/>
<circle cx="160.00" cy="176.73" r="4" fill="#f97316"/>
<circle cx="240.00" cy="202.00" r="4" fill="#f97316"/>
<circle cx="320.00" cy="225.34" r="4" fill="#f97316"/>
<circle cx="400.00" cy="265.59" r="4" fill="#f97316"/>
<circle cx="480.00" cy="270.27" r="4" fill="#f97316"/>
<circle cx="560.00" cy="272.83" r="4" fill="#f97316"/>
<circle cx="640.00" cy="276.91" r="4" fill="#f97316"/>
<circle cx="720.00" cy="287.49" r="4" fill="#f97316"/>
<line x1="750" y1="132" x2="772" y2="132" stroke="#f97316" stroke-width="3"/>
<text x="780" y="136" font-family="Arial" font-size="13">Offline Randomized</text>
<polyline points="80.00,521.33 160.00,527.18 240.00,532.52 320.00,533.37 400.00,537.00 480.00,537.32 560.00,537.86 640.00,538.28 720.00,538.43" fill="none" stroke="#dc2626" stroke-width="2.5"/>
<circle cx="80.00" cy="521.33" r="4" fill="#dc2626"/>
<circle cx="160.00" cy="527.18" r="4" fill="#dc2626"/>
<circle cx="240.00" cy="532.52" r="4" fill="#dc2626"/>
<circle cx="320.00" cy="533.37" r="4" fill="#dc2626"/>
<circle cx="400.00" cy="537.00" r="4" fill="#dc2626"/>
<circle cx="480.00" cy="537.32" r="4" fill="#dc2626"/>
<circle cx="560.00" cy="537.86" r="4" fill="#dc2626"/>
<circle cx="640.00" cy="538.28" r="4" fill="#dc2626"/>
<circle cx="720.00" cy="538.43" r="4" fill="#dc2626"/>
<line x1="750" y1="158" x2="772" y2="158" stroke="#dc2626" stroke-width="3"/>
<text x="780" y="162" font-family="Arial" font-size="13">Online Randomized</text>
<polyline points="80.00,415.53 160.00,430.40 240.00,440.30 320.00,447.45 400.00,452.64 480.00,456.50 560.00,460.57 640.00,464.88 720.00,470.28" fill="none" stroke="#7c3aed" stroke-width="2.5"/>
<circle cx="80.00" cy="415.53" r="4" fill="#7c3aed"/>
<circle cx="160.00" cy="430.40" r="4" fill="#7c3aed"/>
<circle cx="240.00" cy="440.30" r="4" fill="#7c3aed"/>
<circle cx="320.00" cy="447.45" r="4" fill="#7c3aed"/>
<circle cx="400.00" cy="452.64" r="4" fill="#7c3aed"/>
<circle cx="480.00" cy="456.50" r="4" fill="#7c3aed"/>
<circle cx="560.00" cy="460.57" r="4" fill="#7c3aed"/>
<circle cx="640.00" cy="464.88" r="4" fill="#7c3aed"/>
<circle cx="720.00" cy="470.28" r="4" fill="#7c3aed"/>
<line x1="750" y1="184" x2="772" y2="184" stroke="#7c3aed" stroke-width="3"/>
<text x="780" y="188" font-family="Arial" font-size="13">Simple Online Greedy</text>
</svg>