<svg xmlns="http://www.w3.org/2000/svg" width="980" height="620" viewBox="0 0 980 620">
<rect width="100%" height="100%" fill="white"/>
<text x="490.0" y="34" text-anchor="middle" font-family="Arial" font-size="22" font-weight="700">Fairness by k (uniform)</text>
<text x="490.0" y="598" text-anchor="middle" font-family="Arial" font-size="14">k</text>
<text x="22" y="305.0" transform="rotate(-90 22 305.0)" text-anchor="middle" font-family="Arial" font-size="14">Fairness</text>
<line x1="80" y1="70" x2="80" y2="540" stroke="#111827" stroke-width="1.5"/>
<line x1="80" y1="540" x2="720" y2="540" stroke="#111827" stroke-width="1.5"/>
<line x1="80.00" y1="540" x2="80.00" y2="546" stroke="#111827"/>
<text x="80.00" y="564" text-anchor="middle" font-family="Arial" font-size="12">2</text>
<line x1="160.00" y1="540" x2="160.00" y2="546" stroke="#111827"/>
<text x="160.00" y="564" text-anchor="middle" font-family="Arial" font-size="12">3</text>
<line x1="240.00" y1="540" x2="240.00" y2="546" stroke="#111827"/>
<text x="240.00" y="564" text-anchor="middle" font-family="Arial" font-size="12">4</text>
<line x1="320.00" y1="540" x2="320.00" y2="546" stroke="#111827"/>
<text x="320.00" y="564" text-anchor="middle" font-family="Arial" font-size="12">5</text>
<line x1="400.00" y1="540" x2="400.00" y2="546" stroke="#111827"/>
<text x="400.00" y="564" text-anchor="middle" font-family="Arial" font-size="12">6</text>
<line x1="480.00" y1="540" x2="480.00" y2="546" stroke="#111827"/>
<text x="480.00" y="564" text-anchor="middle" font-family="Arial" font-size="12">7</text>
<line x1="560.00" y1="540" x2="560.00" y2="546" stroke="#111827"/>
<text x="560.00" y="564" text-anchor="middle" font-family="Arial" font-size="12">8</text>
<line x1="640.00" y1="540" x2="640.00" y2="546" stroke="#111827"/>
<text x="640.00" y="564" text-anchor="middle" font-family="Arial" font-size="12">9</text>
<line x1="720.00" y1="540" x2="720.00" y2="546" stroke="#111827"/>
<text x="720.00" y="564" text-anchor="middle" font-family="Arial" font-size="12">10</text>
<line x1="74" y1="540.00" x2="80" y2="540.00" stroke="#111827"/>
<line x1="80" y1="540.00" x2="720" y2="540.00" stroke="#e5e7eb"/>
<text x="70" y="544.00" text-anchor="end" font-family="Arial" font-size="12">0.00</text>
<line x1="74" y1="446.00" x2="80" y2="446.00" stroke="#111827"/>
<line x1="80" y1="446.00" x2="720" y2="446.00" stroke="#e5e7eb"/>
<text x="70" y="450.00" text-anchor="end" font-family="Arial" font-size="12">0.18</text>
<line x1="74" y1="352.00" x2="80" y2="352.00" stroke="#111827"/>
<line x1="80" y1="352.00" x2="720" y2="352.00" stroke="#e5e7eb"/>
<text x="70" y="356.00" text-anchor="end" font-family="Arial" font-size="12">0.37</text>
<line x1="74" y1="258.00" x2="80" y2="258.00" stroke="#111827"/>
<line x1="80" y1="258.00" x2="720" y2="258.00" stroke="#e5e7eb"/>
<text x="70" y="262.00" text-anchor="end" font-family="Arial" font-size="12">0.55</text>
<line x1="74" y1="164.00" x2="80" y2="164.00" stroke="#111827"/>
<line x1="80" y1="164.00" x2="720" y2="164.00" stroke="#e5e7eb"/>
<text x="70" y="168.00" text-anchor="end" font-family="Arial" font-size="12">0.74</text>
<line x1="74" y1="70.00" x2="80" y2="70.00" stroke="#111827"/>
<line x1="80" y1="70.00" x2="720" y2="70.00" stroke="#e5e7eb"/>
<text x="70" y="74.00" text-anchor="end" font-family="Arial" font-size="12">0.92</text>
<polyline points="80.00,118.24 160.00,159.17 240.00,182.85 320.00,200.08 400.00,212.90 480.00,222.45 560.00,230.65 640.00,237.13 720.00,242.53" fill="none" stroke="#16a34a" stroke-width="2.5"/>
<circle cx="80.00" cy="118.24" r="4" fill="#16a34a"/>
<circle cx="160.00" cy="159.17" r="4" fill="#16a34a"/>
<circle cx="240.00" cy="182.85" r="4" fill="#16a34a"/>
<circle cx="320.00" cy="200.08" r="4" fill="#16a34a"/>
<circle cx="400.00" cy="212.90" r="4" fill="#16a34a"/>
<circle cx="480.00" cy="222.45" r="4" fill="#16a34a"/>
<circle cx="560.00" cy="230.65" r="4" fill="#16a34a"/>
<circle cx="640.00" cy="237.13" r="4" fill="#16a34a"/>
<circle cx="720.00" cy="242.53" r="4" fill="#16a34a"/>
<line x1="750" y1="80" x2="772" y2="80" stroke="#16a34a" stroke-width="3"/>
<text x="780" y="84" font-family="Arial" font-size="13">Offline Deterministic</text>
<polyline points="80.00,104.81 160.00,140.28 240.00,163.17 320.00,178.74 400.00,190.51 480.00,200.28 560.00,207.83 640.00,215.07 720.00,220.53" fill="none" stroke="#2563eb" stroke-width="2.5"/>
<circle cx="80.00" cy="104.81" r="4" fill="#2563eb"/>
<circle cx="160.00" cy="140.28" r="4" fill="#2563eb"/>
<circle cx="240.00" cy="163.17" r="4" fill="#2563eb"/>
<circle cx="320.00" cy="178.74" r="4" fill="#2563eb"/>
<circle cx="400.00" cy="190.51" r="4" fill="#2563eb"/>
<circle cx="480.00" cy="200.28" r="4" fill="#2563eb"/>
<circle cx="560.00" cy="207.83" r="4" fill="#2563eb"/>
<circle cx="640.00" cy="215.07" r="4" fill="#2563eb"/>
<circle cx="720.00" cy="220.53" r="4" fill="#2563eb"/>
<line x1="750" y1="106" x2="772" y2="106" stroke="#2563eb" stroke-width="3"/>
<text x="780" y="110" font-family="Arial" font-size="13">Offline Greedy</text>
<polyline points="80.00,125.47 160.00,168.39 240.00,186.87 320.00,200.90 400.00,225.38 480.00,231.64 560.00,235.47 640.00,241.59 720.00,246.71" fill="none" stroke="#f97316" stroke-width="2.5"/>
<circle cx="80.00" cy="125.47" r="4" fill="#f97316"/>
<circle cx="160.00" cy="168.39" r="4" fill="#f97316"/>
<circle cx="240.00" cy="186.87" r="4" fill="#f97316"/>
<circle cx="320.00" cy="200.90" r="4" fill="#f97316"/>
<circle cx="400.00" cy="225.38" r="4" fill="#f97316"/>
<circle cx="480.00" cy="231.64" r="4" fill="#f97316"/>
<circle cx="560.00" cy="235.47" r="4" fill="#f97316"/>
<circle cx="640.00" cy="241.59" r="4" fill="#f97316"/>
<circle cx="720.00" cy="246.71" r="4" fill="#f97316"/>
<line x1="750" y1="132" x2="772" y2="132" stroke="#f97316" stroke-width="3"/>
<text x="780" y="136" font-family="Arial" font-size="13">Offline Randomized</text>
<polyline points="80.00,521.99 160.00,527.38 240.00,532.69 320.00,533.56 400.00,536.97 480.00,537.22 560.00,537.83 640.00,538.20 720.00,538.39" fill="none" stroke="#dc2626" stroke-width="2.5"/>
<circle cx="80.00" cy="521.99" r="4" fill="#dc2626"/>
<circle cx="160.00" cy="527.38" r="4" fill="#dc2626"/>
<circle cx="240.00" cy="532.69" r="4" fill="#dc2626"/>
<circle cx="320.00" cy="533.56" r="4" fill="#dc2626"/>
<circle cx="400.00" cy="536.97" r="4" fill="#dc2626"/>
<circle cx="480.00" cy="537.22" r="4" fill="#dc2626"/>
<circle cx="560.00" cy="537.83" r="4" fill="#dc2626"/>
<circle cx="640.00" cy="538.20" r="4" fill="#dc2626"/>
<circle cx="720.00" cy="538.39" r="4" fill="#dc2626"/>
<line x1="750" y1="158" x2="772" y2="158" stroke="#dc2626" stroke-width="3"/>
<text x="780" y="162" font-family="Arial" font-size="13">Online Randomized</text>
<polyline points="80.00,416.90 160.00,426.93 240.00,432.72 320.00,437.31 400.00,440.85 480.00,443.67 560.00,445.30 640.00,447.50 720.00,449.19" fill="none" stroke="#7c3aed" stroke-width="2.5"/>
<circle cx="80.00" cy="416.90" r="4" fill="#7c3aed"/>
<circle cx="160.00" cy="426.93" r="4" fill="#7c3aed"/>
<circle cx="240.00" cy="432.72" r="4" fill="#7c3aed"/>
<circle cx="320.00" cy="437.31" r="4" fill="#7c3aed"/>
<circle cx="400.00" cy="440.85" r="4" fill="#7c3aed"/>
<circle cx="480.00" cy="443.67" r="4" fill="#7c3aed"/>
<circle cx="560.00" cy="445.30" r="4" fill="#7c3aed"/>
<circle cx="640.00" cy="447.50" r="4" fill="#7c3aed"/>
<circle cx="720.00" cy="449.19" r="4" fill="#7c3aed"/>
<line x1="750" y1="184" x2="772" y2="184" stroke="#7c3aed" stroke-width="3"/>
<text x="780" y="188" font-family="Arial" font-size="13">Simple Online Greedy</text>
</svg>